<?xml version="1.0" standalone="no"?>
<!DOCTYPE svg PUBLIC "-//W3C//DTD SVG 20010904//EN"
 "http://www.w3.org/TR/2001/REC-SVG-20010904/DTD/svg10.dtd">
<svg version="1.0" xmlns="http://www.w3.org/2000/svg"
 width="200.000000pt" height="200.000000pt" viewBox="0 0 200.000000 200.000000"
 preserveAspectRatio="xMidYMid meet">
<metadata>
Created by potrace 1.16, written by Peter Selinger 2001-2019
</metadata>
<g transform="translate(0.000000,200.000000) scale(0.100000,-0.100000)"
fill="#000000" stroke="none">
<path d="M0 1000 l0 -1000 1000 0 1000 0 0 1000 0 1000 -1000 0 -1000 0 0
-1000z m515 70 c20 -33 40 -58 45 -55 5 3 23 30 40 60 25 43 37 55 56 55 l24
0 0 -125 c0 -118 -1 -125 -20 -125 -17 0 -19 8 -22 88 l-3 87 -38 -62 c-21
-35 -40 -63 -42 -63 -2 0 -18 26 -37 58 l-33 57 -3 -82 c-3 -81 -3 -83 -28
-83 l-25 0 2 118 c1 64 4 120 6 125 2 4 13 7 23 7 12 0 31 -21 55 -60z m615
-12 l0 -72 39 38 c23 23 46 36 57 34 16 -3 13 -10 -20 -46 l-38 -42 36 -45
c35 -42 36 -45 15 -45 -13 0 -36 15 -55 38 l-33 37 -1 -37 c0 -31 -4 -38 -20
-38 -19 0 -20 7 -20 125 0 118 1 125 20 125 18 0 20 -7 20 -72z m287 50 c37
-35 31 -81 -22 -161 -31 -45 -52 -67 -65 -67 -25 0 -25 5 1 42 12 16 20 30 18
31 -2 1 -17 9 -34 17 -58 30 -68 108 -18 146 29 22 93 17 120 -8z m143 -103
c0 -118 -1 -125 -20 -125 -19 0 -20 7 -20 101 l0 101 -24 -6 c-17 -4 -26 -1
-30 11 -8 19 -9 17 29 31 66 23 65 25 65 -113z m-709 45 c13 -7 19 -7 19 0 0
5 9 10 20 10 19 0 20 -7 20 -90 l0 -90 -27 0 c-16 0 -45 -3 -65 -6 -33 -5 -41
-2 -68 24 -41 42 -42 92 -1 133 31 30 67 37 102 19z m149 0 c0 -7 6 -7 19 0
29 15 41 12 41 -10 0 -11 -6 -20 -14 -20 -30 0 -46 -30 -46 -86 0 -47 -2 -54
-20 -54 -19 0 -20 7 -20 90 0 83 1 90 20 90 11 0 20 -5 20 -10z"/>
<path d="M1317 1083 c-11 -11 -8 -58 5 -71 7 -7 21 -12 33 -12 12 0 26 5 33
12 7 7 12 21 12 33 0 12 -5 26 -12 33 -13 13 -60 16 -71 5z"/>
<path d="M772 1008 c-17 -17 -15 -64 4 -82 20 -20 58 -20 78 0 19 18 21 65 4
82 -16 16 -70 16 -86 0z"/>
</g>
</svg>
