<?xml version="1.0" standalone="no"?>
<!DOCTYPE svg PUBLIC "-//W3C//DTD SVG 20010904//EN"
 "http://www.w3.org/TR/2001/REC-SVG-20010904/DTD/svg10.dtd">
<svg version="1.0" xmlns="http://www.w3.org/2000/svg"
 width="1200.000000pt" height="1152.000000pt" viewBox="0 0 1200.000000 1152.000000"
 preserveAspectRatio="xMidYMid meet">
<metadata>
Created by potrace 1.16, written by Peter Selinger 2001-2019
</metadata>
<g transform="translate(0.000000,1152.000000) scale(0.100000,-0.100000)"
fill="#000000" stroke="none">
<path d="M6058 11490 c-74 -13 -102 -40 -155 -148 l-48 -97 -55 -19 c-72 -24
-175 -26 -216 -4 -18 10 -53 48 -79 85 -94 133 -133 163 -214 163 -68 0 -189
-24 -249 -50 -57 -25 -115 -81 -130 -128 -6 -18 -14 -60 -17 -95 -4 -34 -11
-85 -16 -113 -9 -46 -14 -53 -47 -68 -47 -21 -139 -46 -172 -46 -33 0 -119 75
-145 126 -11 22 -24 42 -30 46 -18 13 -169 8 -228 -7 -111 -29 -207 -94 -258
-174 -28 -43 -29 -48 -26 -160 l2 -116 -36 -55 c-60 -90 -112 -126 -167 -114
-15 3 -76 28 -135 56 l-108 51 -52 -24 c-70 -33 -217 -130 -271 -179 -51 -47
-91 -129 -81 -169 3 -14 24 -65 46 -113 22 -47 42 -109 46 -138 6 -50 5 -51
-37 -87 -23 -20 -58 -61 -77 -90 -39 -62 -45 -63 -195 -37 -50 9 -105 13 -121
10 -37 -7 -133 -82 -192 -148 -25 -29 -60 -82 -78 -118 -44 -90 -42 -144 8
-242 21 -40 54 -103 73 -140 l35 -67 -42 -99 c-23 -54 -53 -115 -67 -135 l-25
-37 -137 6 c-103 4 -143 2 -161 -8 -53 -29 -123 -196 -140 -333 -10 -85 -4
-96 107 -191 41 -35 81 -73 88 -83 20 -28 -11 -325 -38 -363 -25 -37 -73 -63
-138 -78 -114 -25 -120 -28 -145 -84 -34 -78 -49 -152 -49 -246 -1 -162 13
-182 152 -215 42 -10 86 -28 102 -42 88 -73 108 -207 53 -345 -16 -41 -59 -66
-150 -89 -49 -12 -53 -16 -73 -61 -47 -109 -48 -268 -4 -406 28 -85 75 -108
259 -123 65 -5 130 -15 144 -22 38 -18 61 -68 70 -148 9 -89 -1 -108 -114
-193 -129 -99 -145 -139 -105 -269 23 -73 110 -203 150 -225 19 -10 58 -12
153 -9 70 3 144 1 164 -3 47 -11 126 -89 160 -158 25 -52 25 -53 8 -97 -9 -25
-48 -98 -87 -161 l-71 -117 12 -51 c26 -117 186 -286 302 -320 48 -14 50 -14
108 16 64 33 171 48 243 34 40 -7 135 -94 189 -171 46 -67 45 -113 -5 -219
-20 -44 -39 -96 -42 -117 -22 -137 259 -345 475 -351 68 -2 108 17 153 72 74
93 149 105 244 40 33 -22 74 -53 93 -69 l33 -29 -1 -125 -1 -125 33 -28 c68
-57 260 -121 392 -131 l80 -5 49 86 c68 118 91 139 158 139 73 1 141 -20 183
-57 32 -28 37 -41 55 -130 30 -146 31 -148 125 -169 104 -24 297 -28 340 -7
37 19 68 78 91 176 27 113 35 118 200 122 123 3 137 2 169 -18 42 -26 67 -60
120 -159 l40 -76 50 -7 c97 -15 293 19 406 70 80 35 89 53 104 203 7 74 16
142 20 151 8 20 42 31 162 54 78 14 83 14 120 -5 21 -11 74 -56 118 -100 89
-90 100 -94 201 -67 66 17 188 82 225 118 39 39 45 84 27 203 -9 56 -14 114
-11 129 12 59 229 216 299 216 12 0 42 -16 66 -35 127 -102 174 -111 274 -52
71 42 216 167 264 226 31 40 32 45 21 80 -6 21 -24 55 -41 77 -53 69 -90 127
-90 143 0 36 69 132 156 218 118 119 128 122 212 83 35 -16 81 -30 100 -30 60
0 136 46 220 134 86 89 123 154 130 226 5 56 -8 85 -79 170 -58 71 -79 114
-79 168 0 45 46 141 90 190 l30 32 103 0 c58 0 126 3 152 7 45 6 50 10 86 66
71 109 107 242 94 345 -10 79 -44 109 -161 145 -49 15 -95 31 -103 36 -11 7
-11 27 4 127 10 66 28 154 42 196 l23 76 68 15 c37 8 96 20 132 27 62 11 68
14 92 53 44 72 53 113 53 256 l0 133 -43 39 c-27 23 -76 51 -125 70 -97 37
-111 48 -133 105 -13 34 -16 66 -12 141 7 134 31 177 113 203 22 7 57 22 77
33 69 38 90 141 68 342 -12 109 -15 118 -44 149 -26 28 -44 35 -121 51 -49 10
-112 27 -138 38 -41 17 -52 28 -76 76 -39 77 -61 155 -61 217 0 48 3 54 43 90
23 22 59 50 79 62 40 25 73 83 83 147 5 33 1 50 -24 95 -17 30 -51 94 -76 141
-25 48 -61 104 -79 125 l-34 39 -133 0 c-153 0 -169 6 -236 78 -57 62 -77 103
-77 164 -1 39 4 58 21 80 54 68 103 147 103 165 0 37 -59 142 -118 209 -31 36
-94 100 -139 143 -80 76 -84 78 -131 78 -30 0 -72 -10 -113 -27 -35 -15 -88
-36 -117 -46 l-53 -20 -70 37 c-74 39 -176 122 -203 166 -23 37 -20 119 5 179
25 58 22 98 -16 174 -67 138 -217 245 -342 245 -60 0 -98 -18 -167 -79 l-59
-51 -76 0 c-87 0 -145 21 -179 65 -28 36 -28 89 0 176 l21 67 -28 47 c-34 59
-90 122 -125 140 -79 41 -240 59 -302 35 -56 -22 -122 -76 -171 -139 -26 -33
-62 -69 -81 -80 -67 -42 -210 -18 -249 42 -8 13 -25 59 -37 102 -38 135 -80
200 -143 224 -32 12 -268 13 -339 1z m293 -150 c35 -10 36 -12 53 -90 40 -183
127 -274 276 -287 117 -11 220 41 329 167 92 107 89 105 180 91 96 -14 198
-62 213 -99 8 -21 5 -43 -11 -99 -37 -129 -26 -164 87 -260 73 -62 122 -87
201 -104 84 -18 112 -7 203 76 86 80 113 91 194 82 87 -9 177 -97 190 -184 5
-34 0 -65 -20 -131 -36 -121 -35 -167 8 -223 40 -53 165 -166 236 -214 72 -48
114 -47 283 10 74 25 144 45 155 45 14 0 47 -36 112 -126 108 -146 107 -143
40 -282 -69 -144 -66 -161 49 -386 74 -145 75 -146 256 -146 91 0 149 -5 165
-13 39 -19 110 -167 110 -228 0 -49 0 -49 -75 -110 -103 -85 -119 -113 -112
-197 6 -80 88 -356 114 -384 32 -35 85 -55 206 -76 65 -12 122 -24 127 -27 26
-16 40 -222 19 -283 -9 -26 -22 -36 -81 -59 -133 -53 -158 -107 -158 -342 0
-121 3 -147 20 -180 27 -54 76 -91 169 -129 44 -18 91 -42 105 -53 25 -19 26
-25 25 -112 -1 -109 -15 -157 -53 -175 -15 -8 -72 -18 -128 -24 -56 -5 -112
-14 -124 -18 -54 -21 -132 -261 -140 -435 -7 -142 2 -157 124 -206 140 -55
163 -85 142 -183 -12 -59 -55 -118 -103 -143 -26 -13 -50 -15 -139 -9 l-107 6
-62 -71 c-103 -120 -189 -273 -189 -335 0 -37 35 -87 120 -169 71 -69 90 -101
90 -147 -1 -69 -76 -172 -146 -198 -47 -18 -113 -11 -190 21 l-75 31 -72 -35
c-109 -54 -272 -226 -337 -356 -27 -53 -22 -74 30 -140 63 -79 80 -113 80
-157 0 -35 -6 -47 -47 -88 -27 -26 -81 -68 -121 -93 -84 -52 -71 -56 -199 50
-68 55 -76 59 -112 54 -54 -7 -139 -47 -246 -116 -49 -32 -109 -68 -132 -79
-64 -33 -69 -61 -38 -209 14 -67 25 -138 25 -157 0 -34 -3 -38 -53 -60 -28
-12 -83 -33 -120 -45 l-68 -23 -27 23 c-15 13 -63 59 -107 101 l-81 78 -78
-10 c-95 -14 -214 -52 -283 -91 l-51 -30 -4 -125 -3 -126 -32 -27 c-17 -14
-53 -34 -80 -44 -51 -19 -250 -44 -275 -35 -8 4 -33 41 -56 85 -22 43 -54 97
-70 119 -28 38 -36 43 -95 53 -114 20 -274 11 -373 -20 -24 -7 -36 -21 -54
-62 -91 -206 -83 -195 -142 -211 -29 -8 -87 -17 -129 -21 l-75 -6 -37 40 c-20
23 -37 44 -37 49 -2 60 -22 187 -34 211 -18 34 -64 51 -196 71 -41 6 -92 16
-113 21 -60 16 -111 -14 -167 -97 -25 -36 -60 -80 -79 -96 -30 -26 -40 -30
-77 -25 -44 5 -216 80 -235 103 -5 7 -14 59 -18 116 -5 58 -16 118 -24 134
-24 46 -122 133 -179 159 -57 26 -159 55 -193 55 -12 0 -61 -34 -110 -75 -97
-81 -123 -92 -208 -82 -92 11 -289 119 -282 154 2 10 20 84 40 164 48 195 46
203 -103 384 -108 130 -190 151 -365 95 -52 -17 -108 -30 -125 -30 -43 0 -143
78 -205 159 -44 58 -48 68 -42 100 7 42 34 85 99 161 26 30 56 72 67 93 l20
38 -36 87 c-62 152 -149 258 -227 277 -15 4 -84 -1 -153 -11 l-126 -17 -40 39
c-45 43 -85 106 -105 162 -18 53 3 83 91 128 38 21 82 45 97 56 40 28 70 117
70 208 1 83 -13 120 -93 249 l-42 69 -141 4 c-226 6 -258 33 -265 225 l-3 112
39 19 c22 11 68 28 103 37 144 37 155 53 147 223 -4 80 -14 162 -29 222 l-23
95 -135 67 c-87 42 -140 74 -148 90 -16 29 -9 124 14 191 18 53 51 84 98 91
17 3 63 9 101 15 90 13 115 38 149 153 35 117 46 189 47 307 0 95 -1 105 -26
136 -14 19 -47 52 -72 72 -26 21 -66 56 -91 78 -43 38 -44 41 -39 87 7 54 45
134 79 164 34 31 83 36 184 18 l89 -15 62 65 c102 108 178 298 159 400 -4 20
-34 69 -71 117 -36 46 -70 100 -75 120 -20 73 31 170 132 250 71 55 101 58
218 19 l98 -33 66 37 c126 71 229 189 257 298 12 44 11 52 -24 145 -46 124
-50 143 -38 175 10 27 100 102 161 133 57 30 127 23 215 -20 72 -36 77 -37
122 -26 102 26 205 122 273 255 24 49 33 84 43 174 13 110 14 113 52 152 45
46 107 70 184 70 53 0 56 -1 100 -51 132 -146 136 -149 177 -149 83 1 287 96
355 166 29 30 33 43 50 156 14 89 24 127 37 137 35 27 89 43 163 48 87 6 73
17 159 -119 71 -112 71 -112 275 -116 225 -5 224 -6 338 179 43 69 51 77 90
86 56 14 203 15 248 3z"/>
<path d="M5865 10643 c7 -175 10 -175 -93 14 l-67 123 -39 0 -39 0 6 -87 c4
-49 9 -152 13 -230 6 -128 8 -143 24 -143 10 0 26 -3 34 -6 15 -6 16 9 10 142
-5 119 -4 147 6 137 7 -6 45 -69 85 -140 72 -128 72 -128 106 -125 19 2 35 5
36 5 3 4 -17 377 -23 415 -6 38 -9 42 -36 42 l-29 0 6 -147z"/>
<path d="M6132 10697 c-19 -50 -56 -154 -83 -229 l-49 -138 38 0 c37 0 39 2
53 48 17 53 32 59 125 47 l52 -6 12 -49 c11 -48 25 -59 71 -60 19 0 15 20 -61
307 -36 137 -46 162 -64 167 -55 15 -59 10 -94 -87z m92 -103 c24 -93 24 -94
-34 -94 -27 0 -50 2 -50 5 0 22 55 164 61 158 4 -4 15 -36 23 -69z"/>
<path d="M5280 10731 c-81 -43 -111 -177 -71 -309 24 -79 64 -124 128 -141 51
-14 66 -14 112 5 79 31 122 141 100 258 -19 105 -51 161 -111 192 -38 19 -116
17 -158 -5z m148 -84 c51 -54 66 -170 33 -243 -16 -35 -24 -42 -52 -45 -58 -7
-79 1 -104 39 -51 79 -55 199 -8 247 35 34 100 35 131 2z"/>
<path d="M6476 10718 c-22 -136 -54 -414 -48 -419 7 -7 183 -29 226 -29 23 0
26 4 26 34 0 33 -1 34 -52 40 -120 15 -118 14 -118 57 0 22 6 83 14 137 8 53
17 123 21 155 l6 57 -35 0 c-32 0 -36 -3 -40 -32z"/>
<path d="M5018 10663 c-16 -2 -28 -10 -28 -16 0 -20 102 -431 109 -439 3 -3
19 -4 34 -1 26 5 28 9 23 37 -15 82 -100 426 -105 425 -3 -1 -18 -4 -33 -6z"/>
<path d="M6932 10497 c-59 -245 -66 -276 -60 -282 3 -3 18 -7 34 -8 l28 -2 53
219 c30 121 50 222 46 226 -4 4 -20 10 -34 13 l-26 7 -41 -173z"/>
<path d="M4760 10576 l-125 -43 3 -34 c2 -19 5 -35 7 -37 3 -3 72 14 98 24 8
3 32 -56 72 -175 l59 -180 30 6 c17 3 33 8 35 10 3 2 -19 76 -47 166 -28 89
-53 171 -54 182 -3 18 30 43 76 58 13 4 -4 67 -17 66 -7 0 -68 -20 -137 -43z"/>
<path d="M7080 10385 c-40 -119 -70 -218 -69 -219 2 -2 18 -6 34 -10 l30 -6
44 137 c52 159 52 159 77 -48 17 -136 19 -141 45 -155 16 -8 32 -14 38 -14 8
0 151 409 151 432 0 3 -13 11 -30 16 l-29 11 -48 -145 c-55 -168 -53 -169 -82
49 -11 82 -21 150 -23 152 -2 1 -17 6 -34 9 l-32 7 -72 -216z"/>
<path d="M4428 10438 c-16 -5 -28 -15 -28 -21 0 -19 50 -430 55 -454 5 -21 7
-21 37 -9 31 13 32 16 29 62 -1 27 -3 53 -4 57 -1 5 29 22 66 39 l68 31 38
-37 c40 -39 66 -44 84 -15 8 13 4 24 -17 50 -57 69 -281 304 -291 306 -5 1
-22 -3 -37 -9z m134 -250 c-65 -29 -66 -28 -77 82 l-6 65 60 -65 60 -65 -37
-17z"/>
<path d="M7582 10371 c-45 -33 -68 -85 -58 -133 3 -17 26 -57 51 -90 52 -69
58 -109 21 -133 -28 -18 -62 -9 -95 27 -18 18 -20 30 -15 64 6 41 5 42 -26 49
-17 4 -34 5 -36 2 -3 -3 -8 -30 -11 -60 -7 -68 16 -111 75 -145 72 -40 152
-23 190 40 42 71 36 119 -26 202 -63 81 -66 126 -10 126 41 0 78 -40 78 -83 0
-27 5 -36 25 -45 35 -16 33 -17 44 25 19 68 -5 117 -78 157 -62 33 -79 33
-129 -3z"/>
<path d="M4140 10280 c-16 -10 -9 -26 84 -193 21 -37 36 -70 34 -72 -2 -2 -64
34 -137 81 -133 85 -154 92 -181 59 -12 -14 -10 -18 155 -302 33 -57 65 -103
71 -103 6 0 19 9 28 19 17 18 15 24 -50 135 -37 64 -65 118 -63 121 3 2 65
-33 138 -79 133 -83 134 -83 162 -67 19 10 27 21 23 31 -3 8 -53 97 -111 198
-105 180 -118 195 -153 172z"/>
<path d="M7906 10225 c-20 -30 -13 -49 30 -76 19 -11 34 -23 34 -25 0 -2 -50
-75 -110 -161 -105 -148 -110 -157 -94 -175 10 -10 23 -18 30 -18 11 0 90 101
184 238 24 34 47 62 52 62 5 0 29 -13 52 -29 l43 -30 16 33 15 33 -105 79
c-137 102 -128 98 -147 69z"/>
<path d="M5955 10124 c-11 -1 -69 -8 -130 -14 -959 -102 -1754 -574 -2190
-1300 -248 -413 -387 -886 -417 -1412 l-3 -48 1392 0 1393 0 0 1390 c0 1106
-3 1390 -12 1389 -7 -1 -22 -3 -33 -5z m-55 -1384 l0 -1290 -90 0 -90 0 0 180
0 180 -55 0 c-30 0 -55 3 -55 8 0 4 -11 318 -25 697 -14 380 -25 700 -25 713
l0 22 -190 0 c-121 0 -190 -4 -190 -10 0 -6 -36 -328 -80 -716 -44 -389 -80
-708 -80 -710 0 -2 -36 -4 -80 -4 l-80 0 0 -180 0 -180 -45 0 -45 0 0 180 0
180 -29 0 c-17 0 -32 3 -34 8 -3 4 8 50 24 102 81 265 92 344 64 474 -44 206
-175 338 -367 367 -246 39 -484 -125 -543 -372 -28 -120 -18 -199 55 -434 22
-71 40 -133 40 -137 0 -5 -16 -8 -35 -8 l-35 0 0 -180 0 -180 -301 0 -301 0 7
68 c26 285 48 408 105 619 191 695 628 1241 1253 1563 350 180 774 296 1205
328 l22 2 0 -1290z m-436 258 c11 -260 36 -1034 36 -1108 l0 -70 -185 0 c-169
0 -185 1 -185 18 -1 23 141 1283 146 1300 2 8 30 12 93 12 l89 0 6 -152z
m-941 -346 c36 -18 79 -48 96 -68 27 -30 91 -143 91 -159 0 -3 -164 -5 -365
-5 -201 0 -365 2 -365 5 0 12 34 71 63 112 37 52 117 109 189 135 84 30 207
21 291 -20z m107 -337 l0 -45 -285 0 -285 0 0 45 0 45 285 0 285 0 0 -45z m85
-161 c-7 -30 -30 -114 -51 -185 l-39 -129 -51 0 -52 0 -34 178 -34 177 -71 3
-72 3 -26 -88 c-15 -48 -39 -128 -54 -178 l-28 -90 -73 0 -73 0 -39 125 c-21
69 -45 151 -52 183 l-14 57 388 0 388 0 -13 -56z m-301 -183 c14 -73 26 -139
26 -147 0 -11 -17 -14 -73 -14 -41 0 -76 3 -80 6 -3 3 -2 18 3 32 5 15 25 82
46 150 21 67 41 119 45 115 4 -5 19 -68 33 -142z m266 -361 l0 -150 -342 2
-343 3 -3 148 -3 147 346 0 345 0 0 -150z m960 3 l0 -148 -345 0 -345 0 0 148
0 147 345 0 345 0 0 -147z"/>
<path d="M5625 9760 c-206 -27 -326 -94 -386 -215 -29 -60 -32 -74 -33 -168
l-1 -102 55 3 c228 13 375 132 425 344 16 67 20 149 8 147 -5 -1 -35 -5 -68
-9z m-64 -183 c-28 -64 -93 -132 -156 -162 -74 -34 -95 -33 -95 5 0 88 110
193 227 218 47 10 50 1 24 -61z"/>
<path d="M4210 8500 l0 -30 135 0 135 0 0 30 0 30 -135 0 -135 0 0 -30z"/>
<path d="M6070 8740 l0 -1390 1391 0 1391 0 -6 73 c-32 356 -77 583 -170 852
-319 928 -1045 1551 -2070 1775 -116 26 -335 59 -483 74 l-53 5 0 -1389z m603
1234 c20 -10 37 -22 37 -26 0 -14 -66 -38 -106 -38 -48 0 -99 26 -126 63 l-21
30 89 -5 c56 -4 103 -12 127 -24z m491 -199 c154 -75 277 -152 315 -198 18
-23 7 -22 -86 8 -90 28 -159 68 -223 130 -34 33 -56 45 -90 50 -70 11 -129 46
-152 89 -9 17 -7 18 27 12 21 -4 115 -45 209 -91z m-262 -123 c47 -24 96 -68
87 -76 -9 -9 -144 63 -169 89 l-25 27 30 -7 c17 -4 51 -19 77 -33z m-642 -47
c12 -14 6 -35 -10 -35 -14 0 -41 31 -35 41 9 14 31 11 45 -6z m1375 -225 c279
-105 421 -164 423 -174 2 -8 0 -22 -5 -29 -6 -11 -34 -5 -143 35 -74 26 -211
75 -305 109 -148 53 -432 165 -444 175 -7 6 31 44 43 44 6 0 200 -72 431 -160z
m-1388 114 c3 -8 1 -20 -6 -27 -14 -14 -47 15 -37 32 10 16 36 13 43 -5z m443
-78 c0 -89 -4 -96 -54 -96 -20 0 -24 6 -30 53 -3 28 -6 69 -6 90 l0 37 45 0
45 0 0 -84z m643 -115 c51 -21 220 -81 377 -131 277 -90 428 -144 497 -177 42
-20 119 -123 101 -135 -28 -17 -77 -5 -247 61 -198 78 -260 97 -285 88 -16 -6
-16 -9 1 -38 26 -45 48 -57 149 -78 141 -30 446 -165 523 -231 l35 -29 -37
-16 c-65 -27 -97 -20 -355 86 -422 172 -768 355 -884 467 -21 20 -36 38 -33
40 9 10 118 -35 231 -94 67 -36 148 -73 179 -84 67 -23 155 -27 155 -7 0 7
-107 69 -237 137 -247 128 -293 155 -293 171 0 17 30 9 123 -30z m-1091 -96
c3 -108 9 -124 48 -125 8 0 39 20 69 44 35 29 59 42 72 39 18 -5 69 -61 69
-76 0 -4 -21 -7 -47 -7 l-46 0 6 -201 6 -202 -49 -191 c-26 -105 -57 -254 -69
-330 -12 -79 -28 -152 -39 -169 -15 -27 -108 -95 -117 -86 -6 7 -18 1326 -12
1351 7 25 56 57 89 58 14 0 17 -15 20 -105z m695 34 c39 -22 82 -49 95 -60
l23 -20 -66 4 c-65 4 -156 36 -171 60 -4 7 -8 27 -8 44 0 31 1 32 28 22 15 -6
59 -28 99 -50z m-167 -66 l0 -88 -110 3 -110 3 0 65 c0 36 -4 73 -9 82 -8 15
2 17 110 20 l119 2 0 -87z m-104 -153 l184 0 0 -117 0 -116 -127 6 c-71 4
-158 7 -195 7 l-68 0 0 99 c0 70 4 101 13 104 7 3 5 6 -5 6 -10 1 -18 6 -18
12 0 6 7 8 16 5 9 -3 99 -6 200 -6z m416 -79 c79 -38 276 -142 438 -231 162
-88 363 -195 445 -237 83 -41 164 -83 180 -93 17 -10 72 -35 123 -55 51 -21
112 -53 135 -73 63 -52 114 -83 191 -113 62 -24 67 -28 48 -38 -17 -9 -37 -5
-109 23 -209 80 -438 188 -702 333 -221 121 -863 492 -883 511 -16 14 -25 42
-13 42 3 0 69 -31 147 -69z m252 42 c15 -8 55 -35 88 -59 143 -105 299 -180
673 -323 132 -51 294 -118 361 -150 128 -62 144 -78 160 -160 l7 -31 -99 41
c-178 74 -433 198 -739 359 -165 87 -345 180 -401 208 -99 50 -164 95 -164
113 0 14 42 28 65 22 11 -3 33 -12 49 -20z m-34 -347 c436 -271 567 -349 725
-432 155 -81 372 -173 541 -230 l111 -38 27 -69 c29 -74 60 -200 71 -284 6
-44 3 -56 -16 -82 -12 -16 -36 -35 -53 -42 -32 -12 -531 -26 -1141 -31 l-319
-3 -32 130 c-18 72 -66 263 -108 425 -42 162 -87 347 -101 410 -24 106 -75
398 -75 426 0 13 38 23 55 15 6 -3 147 -90 315 -195z m-670 -26 l0 -120 -60 0
c-67 0 -60 -13 -80 135 -16 113 -20 105 65 105 l75 0 0 -120z m200 99 c0 -11
-7 -67 -16 -125 l-17 -104 -57 0 -57 0 -6 59 c-2 32 -2 88 0 125 l6 66 73 0
c68 0 74 -2 74 -21z m136 -414 c-2 -11 -15 -51 -29 -90 -13 -38 -41 -133 -62
-210 -21 -77 -40 -143 -44 -147 -3 -3 -22 -9 -42 -13 l-37 -7 9 49 c5 26 25
165 45 308 34 252 58 414 70 465 4 17 19 -29 51 -155 24 -99 42 -189 39 -200z
m-488 83 c28 -160 77 -536 71 -542 -3 -3 -14 -3 -26 0 -18 5 -28 33 -72 213
-28 114 -51 220 -51 235 0 37 42 216 50 216 4 0 17 -55 28 -122z m142 -73 l0
-135 -24 0 c-13 0 -28 6 -33 13 -8 9 -44 218 -43 250 0 4 23 7 50 7 l50 0 0
-135z m170 118 c0 -10 -29 -181 -35 -210 -5 -19 -12 -23 -45 -23 l-40 0 0 120
0 120 60 0 c33 0 60 -3 60 -7z m249 -388 c1 -17 -12 -69 -27 -115 l-29 -85
-51 -3 c-29 -2 -52 1 -52 5 0 12 66 244 92 323 l22 65 22 -80 c12 -44 23 -94
23 -110z m-621 -46 c21 -85 35 -156 30 -158 -5 -1 -24 0 -42 3 -31 6 -34 11
-55 79 -25 87 -26 108 -5 194 12 46 19 61 25 50 5 -8 26 -84 47 -168z m328
100 c-3 -17 -11 -71 -18 -120 l-12 -90 -60 3 -61 3 -7 65 c-4 36 -10 89 -13
118 l-6 52 92 0 92 0 -7 -31z m344 -245 c0 -17 -5 -20 -29 -16 l-29 4 16 46
16 47 12 -30 c7 -17 13 -39 14 -51z m-766 34 c6 -32 -4 -48 -32 -48 -19 0 -24
23 -13 53 14 37 37 34 45 -5z m30 -145 c9 -26 16 -48 16 -50 0 -2 -15 -3 -33
-3 -29 0 -36 5 -55 45 -12 25 -22 48 -22 50 0 3 18 5 39 5 38 0 40 -2 55 -47z
m125 -4 c6 -29 10 -53 9 -54 -2 -2 -17 -1 -34 2 -27 4 -33 11 -46 54 l-16 49
38 0 c38 0 38 0 49 -51z m95 20 c3 -17 6 -45 6 -61 0 -25 -2 -27 -19 -19 -10
6 -22 27 -25 46 -4 20 -10 43 -13 51 -4 10 2 14 20 14 19 0 26 -6 31 -31z
m111 19 c-2 -7 -9 -33 -15 -58 l-12 -44 -12 29 c-7 17 -16 42 -20 58 -6 26 -5
27 28 27 24 0 34 -4 31 -12z m119 -15 c-14 -56 -23 -71 -49 -77 -15 -4 -29 -5
-32 -3 -2 3 -1 28 3 56 l7 51 38 0 c38 0 39 -1 33 -27z m152 15 c-2 -7 -10
-30 -17 -50 -7 -21 -18 -38 -24 -38 -7 0 -27 -3 -45 -7 l-33 -6 7 39 c13 74
13 74 68 74 36 0 48 -3 44 -12z m164 7 c0 -2 -10 -25 -22 -50 -22 -44 -23 -45
-71 -45 -35 0 -48 4 -44 13 2 6 10 29 18 50 13 36 14 37 66 37 29 0 53 -2 53
-5z m-835 -172 c14 -21 25 -41 25 -45 0 -5 -25 -8 -55 -8 l-55 0 11 27 c9 25
37 63 45 63 2 0 15 -17 29 -37z m200 21 c14 -6 45 -53 45 -69 0 -3 -15 -5 -34
-5 -27 0 -35 5 -40 24 -3 13 -9 31 -12 40 -6 17 11 21 41 10z m268 -16 c13
-19 2 -48 -17 -48 -23 0 -40 38 -25 56 14 17 28 14 42 -8z m143 0 c-3 -13 -6
-31 -6 -40 0 -14 -8 -18 -32 -18 -18 0 -39 4 -47 9 -21 14 -4 47 32 59 52 16
60 15 53 -10z m129 0 c-4 -13 -9 -31 -11 -40 -4 -13 -16 -18 -41 -18 -33 0
-35 1 -28 27 8 33 5 30 35 42 41 16 52 13 45 -11z m115 18 c0 -2 7 -20 15 -40
l15 -36 -55 0 c-30 0 -55 4 -55 9 0 16 51 71 66 71 8 0 14 -2 14 -4z m-738
-31 c15 -33 -1 -52 -30 -36 -20 10 -35 45 -24 55 14 14 44 4 54 -19z m184 -16
l-16 -23 0 25 c0 30 10 43 23 30 6 -6 3 -18 -7 -32z m-246 -73 c0 -2 3 -11 6
-20 5 -14 -5 -16 -75 -16 -61 0 -81 3 -81 13 0 8 3 17 7 20 7 7 143 10 143 3z
m207 -12 c6 -15 -11 -34 -32 -34 -5 0 -16 4 -24 9 -21 14 -5 41 24 41 14 0 28
-7 32 -16z m187 1 c7 -19 -17 -30 -41 -20 -17 6 -17 7 1 21 25 18 32 18 40 -1z
m123 -1 c6 -17 -12 -34 -37 -34 -25 0 -43 17 -37 34 4 10 18 16 37 16 19 0 33
-6 37 -16z m106 9 c4 -3 0 -15 -9 -25 -13 -14 -20 -15 -31 -7 -10 9 -10 15 -2
25 12 15 31 18 42 7z m205 1 c12 -4 22 -13 22 -20 0 -11 -20 -14 -91 -14 -67
0 -90 3 -87 12 8 23 103 36 156 22z m-728 -19 c0 -9 -9 -15 -25 -15 -16 0 -25
6 -25 15 0 9 9 15 25 15 16 0 25 -6 25 -15z m178 4 c-2 -6 -8 -10 -13 -10 -5
0 -11 4 -13 10 -2 6 4 11 13 11 9 0 15 -5 13 -11z"/>
<path d="M6752 9220 c0 -19 2 -27 5 -17 2 9 2 25 0 35 -3 9 -5 1 -5 -18z"/>
<path d="M6608 9223 c23 -2 61 -2 85 0 23 2 4 4 -43 4 -47 0 -66 -2 -42 -4z"/>
<path d="M6731 9194 c0 -11 3 -14 6 -6 3 7 2 16 -1 19 -3 4 -6 -2 -5 -13z"/>
<path d="M6643 8993 c15 -2 37 -2 50 0 12 2 0 4 -28 4 -27 0 -38 -2 -22 -4z"/>
<path d="M6824 8905 c0 -55 1 -76 3 -47 2 29 2 74 0 100 -2 26 -3 2 -3 -53z"/>
<path d="M6568 8813 c23 -2 59 -2 80 0 20 2 1 4 -43 4 -44 0 -61 -2 -37 -4z"/>
<path d="M8144 9957 c-34 -45 -95 -129 -134 -186 l-73 -104 23 -19 c12 -10 26
-18 31 -18 4 0 66 82 138 183 l130 182 -21 23 c-12 12 -24 22 -27 22 -3 0 -34
-37 -67 -83z"/>
<path d="M3654 9923 l-21 -27 116 -136 c64 -74 129 -152 145 -172 l28 -38 30
21 c16 12 28 25 26 30 -4 12 -241 289 -275 322 l-29 27 -20 -27z"/>
<path d="M8315 9900 c-17 -18 -16 -21 15 -60 27 -34 31 -45 22 -63 -5 -12 -60
-78 -121 -147 -61 -69 -111 -127 -111 -130 0 -3 13 -13 29 -23 l29 -17 108
122 c59 68 116 132 126 143 18 19 18 19 51 -13 39 -38 47 -39 75 -9 l22 24
-104 96 c-57 53 -108 97 -114 97 -5 0 -17 -9 -27 -20z"/>
<path d="M3421 9696 l-23 -24 120 -216 119 -215 22 23 c26 28 26 37 0 87 l-20
41 25 31 c13 18 35 45 48 61 l24 28 51 -25 50 -26 22 23 c11 12 21 27 21 33 0
11 -398 203 -422 203 -8 0 -25 -11 -37 -24z m202 -127 c20 -11 37 -23 37 -27
0 -5 -15 -23 -34 -41 l-33 -32 -42 70 c-22 38 -41 72 -41 75 0 6 57 -17 113
-45z"/>
<path d="M8493 9537 c-66 -67 -128 -136 -137 -154 -34 -67 -9 -141 63 -190 49
-33 98 -30 152 9 64 46 239 219 239 235 0 8 -8 25 -17 38 l-18 23 -127 -124
c-137 -133 -153 -141 -202 -103 -53 41 -30 93 91 209 43 41 88 89 100 106 l22
31 -22 22 -23 21 -121 -123z"/>
<path d="M3220 9470 c-12 -28 -11 -32 16 -53 16 -12 46 -37 66 -56 43 -37 44
-31 -31 -117 l-33 -36 -31 29 c-18 17 -49 43 -70 58 l-39 29 -19 -25 c-10 -13
-18 -27 -16 -30 3 -9 260 -224 312 -261 l40 -29 17 21 c10 12 18 26 18 31 0 4
-31 34 -70 65 -38 31 -70 61 -70 67 0 8 37 59 80 110 4 4 42 -20 85 -53 l79
-61 20 21 c16 16 18 24 10 38 -16 25 -329 282 -343 282 -5 0 -14 -14 -21 -30z"/>
<path d="M8886 9304 c-10 -7 -24 -15 -30 -17 -6 -2 0 -20 17 -45 15 -23 27
-46 27 -52 0 -5 -69 -56 -154 -113 l-154 -102 14 -34 14 -33 37 23 c21 13 76
48 123 79 47 31 104 69 127 83 l42 27 31 -45 c32 -46 33 -47 79 -17 10 8 -3
36 -63 131 -43 66 -80 122 -84 125 -4 2 -16 -2 -26 -10z"/>
<path d="M2970 9098 c-24 -12 -139 -172 -139 -193 -1 -10 350 -247 373 -253 6
-1 37 41 69 95 69 117 74 153 27 207 -35 39 -87 60 -132 54 -23 -4 -31 0 -38
16 -24 61 -109 100 -160 74z m88 -88 l33 -30 -37 -58 c-20 -31 -38 -59 -40
-61 -5 -5 -84 59 -84 69 0 11 79 110 88 110 4 0 22 -14 40 -30z m174 -97 c25
-23 22 -50 -13 -111 l-30 -53 -40 23 c-68 38 -71 66 -11 131 29 31 66 35 94
10z"/>
<path d="M8934 8884 c-93 -47 -177 -94 -187 -103 -17 -17 -17 -19 1 -67 40
-99 122 -232 122 -196 0 6 -6 13 -12 15 -7 3 2 6 19 6 37 1 38 -6 -21 123
l-35 78 49 25 c27 14 53 25 58 25 4 0 25 -34 45 -75 21 -41 42 -77 47 -80 10
-6 60 15 60 25 0 4 -18 45 -39 91 l-40 84 46 23 c25 13 46 22 48 20 1 -2 22
-41 45 -87 41 -82 42 -83 72 -77 18 3 33 8 35 10 2 2 -22 58 -53 125 -39 83
-62 121 -74 121 -9 0 -92 -39 -186 -86z"/>
<path d="M2745 8718 c-18 -50 -12 -58 65 -90 41 -17 77 -33 79 -35 5 -3 -49
-143 -55 -143 -2 0 -37 14 -79 30 -42 17 -80 30 -84 30 -10 0 -26 -58 -19 -66
13 -13 414 -162 419 -156 4 4 9 19 13 33 6 26 2 28 -77 59 -45 18 -86 36 -90
40 -7 6 28 116 44 134 5 5 47 -5 99 -24 50 -18 93 -31 95 -28 3 2 7 18 11 34
l6 30 -203 80 c-111 43 -206 80 -210 82 -5 2 -11 -2 -14 -10z"/>
<path d="M9159 8386 c-106 -28 -175 -94 -186 -175 -16 -121 92 -215 227 -196
58 8 157 53 187 86 28 31 53 90 53 126 -1 37 -31 103 -61 130 -46 41 -133 53
-220 29z m172 -95 c54 -55 35 -127 -45 -166 -127 -61 -236 -32 -236 62 0 71
90 131 198 132 46 1 57 -3 83 -28z"/>
<path d="M2608 8266 c-40 -30 -102 -243 -74 -251 6 -1 102 -29 214 -60 112
-32 205 -56 207 -54 9 10 55 198 55 224 -1 87 -107 143 -194 104 -22 -10 -29
-8 -61 20 -29 25 -44 31 -83 31 -26 0 -55 -7 -64 -14z m114 -73 c21 -19 22
-37 6 -98 -8 -29 -18 -45 -28 -45 -25 0 -90 20 -90 28 1 29 24 100 37 114 20
23 51 23 75 1z m190 -40 c21 -19 23 -55 7 -119 -12 -47 -20 -51 -59 -29 -14 8
-38 14 -54 15 -20 0 -27 4 -23 14 3 8 11 32 18 55 22 74 70 102 111 64z"/>
<path d="M9375 7953 c-16 -2 -93 -15 -170 -29 -76 -13 -143 -24 -147 -24 -11
0 -10 -42 1 -59 8 -12 22 -12 99 1 104 17 94 24 107 -84 l7 -58 35 0 35 0 -7
84 -7 83 52 10 c37 8 53 7 55 -1 4 -10 25 -149 25 -160 0 -3 16 -6 36 -6 l37
0 -7 58 c-3 31 -9 87 -13 125 l-6 67 -51 -1 c-28 -1 -64 -4 -81 -6z"/>
<path d="M2795 7825 c-66 -12 -163 -30 -217 -40 l-96 -17 -10 -39 -10 -40 196
-98 c252 -126 242 -123 242 -73 0 37 -3 41 -40 56 l-40 16 0 59 c0 86 11 107
57 115 50 8 59 15 68 54 8 39 14 38 -150 7z m-46 -117 c-1 -18 -4 -42 -7 -54
-7 -20 -8 -20 -81 13 -40 18 -71 37 -67 40 7 7 109 31 139 32 13 1 17 -7 16
-31z"/>
<path d="M9490 7411 l0 -58 -52 -7 c-29 -3 -80 -6 -114 -6 -34 0 -95 -3 -137
-6 l-77 -7 0 -35 0 -34 195 7 195 7 0 -57 0 -56 38 3 37 3 -2 50 c-1 28 -5 96
-9 153 l-6 102 -34 0 -34 0 0 -59z"/>
<path d="M2826 7419 c-3 -17 -6 -46 -6 -64 0 -18 -3 -47 -6 -64 l-6 -31 -102
0 c-55 0 -141 5 -191 10 -49 5 -90 8 -91 7 -1 -1 1 -16 3 -33 6 -37 22 -42
173 -48 68 -3 79 -2 40 3 -52 7 -51 8 32 9 79 2 118 -8 86 -21 -7 -3 17 -6 54
-6 l66 -1 6 78 c4 42 8 103 11 135 l5 57 -34 0 c-30 0 -34 -4 -40 -31z"/>
<path d="M4529 7213 l-1316 -3 4 -53 c10 -145 26 -281 43 -381 132 -753 505
-1376 1066 -1778 400 -286 932 -484 1454 -543 74 -8 154 -17 178 -21 l42 -5 0
1385 c0 762 -3 1387 -8 1390 -18 11 -213 12 -1463 9z m1266 -76 c5 -6 -241
-341 -250 -340 -5 0 -57 75 -114 167 l-105 166 -31 -30 c-17 -16 -80 -93 -140
-169 -61 -77 -114 -140 -118 -141 -5 0 -69 52 -143 116 l-134 115 -116 -108
c-63 -59 -119 -109 -123 -111 -5 -2 -54 55 -109 125 -149 191 -121 186 -250
52 l-108 -112 -102 134 c-56 75 -102 137 -102 140 0 4 1942 1 1945 -4z m-2245
-192 l-195 -195 -16 118 c-9 64 -19 152 -21 195 l-5 77 216 0 216 0 -195 -195z
m371 -30 l124 -165 116 116 116 115 28 -38 c82 -109 199 -253 207 -253 5 0 61
50 124 110 63 61 119 110 125 110 5 0 56 -39 112 -88 56 -48 119 -101 141
-117 37 -28 39 -29 52 -10 65 90 241 304 248 302 4 -2 48 -66 96 -143 l87
-141 -161 -226 c-134 -190 -162 -223 -167 -204 -3 12 -9 93 -13 179 l-7 157
28 7 c15 4 73 17 128 29 l100 21 0 35 c0 32 -2 34 -30 32 -45 -3 -289 -55
-299 -63 -4 -5 -3 -94 3 -200 7 -106 11 -193 9 -195 -2 -1 -59 4 -128 11 -69
7 -135 13 -147 13 -22 1 -23 1 -6 37 17 35 17 36 -7 55 -33 24 -37 24 -53 -7
-14 -26 -14 -25 -21 35 l-7 61 -237 -2 -237 -3 0 -65 0 -65 233 4 c127 2 232
0 232 -4 0 -9 -539 -779 -668 -954 l-26 -35 -49 55 c-260 287 -462 684 -572
1123 l-27 109 213 213 c118 118 215 214 215 214 1 0 57 -74 125 -165z m2009
-1150 l0 -1236 -62 6 c-251 26 -517 78 -718 141 -151 47 -300 104 -300 115 0
8 133 281 891 1831 101 208 185 378 187 378 1 0 2 -556 2 -1235z m-691 -16
c-248 -508 -452 -925 -454 -927 -5 -5 -85 30 -85 38 0 8 133 253 552 1020 145
267 303 556 349 642 46 86 85 155 87 153 1 -1 -200 -418 -449 -926z m285 769
c-27 -53 -252 -468 -531 -978 -143 -261 -279 -512 -303 -557 -24 -46 -50 -83
-57 -83 -23 0 -73 30 -73 43 0 6 13 35 28 62 45 80 944 1545 949 1545 2 0 -4
-15 -13 -32z m-574 -299 c80 -7 152 -15 161 -18 13 -5 -5 -37 -90 -157 -126
-180 -181 -248 -191 -237 -4 4 -19 94 -34 198 -15 105 -30 200 -33 213 -5 20
-2 22 18 18 13 -3 89 -10 169 -17z m191 -178 c-130 -213 -594 -970 -628 -1024
-25 -40 -34 -40 -90 3 l-22 17 38 54 c708 1002 799 1129 807 1129 2 0 -45 -80
-105 -179z m-418 -58 l24 -163 -31 -5 c-17 -2 -88 -6 -159 -7 -101 -2 -126 0
-122 10 2 7 60 91 127 187 92 129 125 169 130 157 4 -10 18 -90 31 -179z m77
-247 c0 -3 -70 -103 -156 -223 -86 -120 -159 -224 -164 -232 -4 -8 -14 -12
-22 -8 -19 7 -25 64 -34 289 l-7 167 114 4 c63 1 149 4 192 5 42 1 77 0 77 -2z
m-445 -308 c7 -177 7 -178 30 -178 64 0 64 -14 -3 -107 l-45 -62 -61 47 c-34
25 -93 77 -133 115 l-71 69 110 156 c61 86 120 168 132 183 l21 26 6 -36 c4
-20 10 -116 14 -213z"/>
<path d="M3550 6446 l0 -63 109 -7 c60 -4 150 -4 200 0 l91 7 0 57 0 57 -67 6
c-38 4 -128 7 -200 7 l-133 0 0 -64z"/>
<path d="M4020 6205 l0 -65 245 0 245 0 0 65 0 65 -245 0 -245 0 0 -65z"/>
<path d="M3840 5965 l0 -65 240 0 240 0 0 55 c0 50 -2 56 -26 65 -14 6 -122
10 -240 10 l-214 0 0 -65z"/>
<path d="M5844 6477 c-33 -45 -77 -105 -97 -133 l-36 -50 25 -37 c30 -45 90
-77 144 -77 l40 0 -1 133 c-1 72 -4 158 -8 189 l-6 57 -61 -82z"/>
<path d="M5597 5998 c-85 -120 -82 -113 -50 -136 103 -73 283 -124 331 -94 7
5 15 31 18 58 l6 50 -58 13 c-48 11 -67 22 -99 55 -22 24 -49 58 -60 76 -11
18 -25 35 -32 37 -6 2 -31 -24 -56 -59z"/>
<path d="M5398 5621 c-43 -64 -78 -119 -78 -122 0 -11 176 -87 238 -104 36 -9
90 -15 125 -13 66 3 63 0 80 86 6 29 4 32 -19 32 -69 0 -148 58 -211 154 -25
39 -49 74 -52 78 -3 4 -41 -46 -83 -111z"/>
<path d="M5185 5281 c-38 -49 -68 -92 -67 -96 1 -9 173 -83 292 -126 62 -23
109 -33 176 -36 l91 -6 6 44 c3 24 9 62 12 84 l7 40 -65 1 c-122 3 -248 57
-332 143 -21 23 -42 41 -46 41 -3 0 -37 -40 -74 -89z"/>
<path d="M5029 4986 c-87 -68 -87 -69 -36 -105 72 -49 215 -117 317 -149 103
-33 274 -62 364 -62 l56 0 0 74 0 73 -102 7 c-209 14 -358 61 -474 150 l-71
54 -54 -42z"/>
<path d="M6066 5814 c-4 -768 -4 -1399 -1 -1402 16 -16 381 49 610 108 272 70
438 131 680 250 383 188 682 437 942 785 292 390 478 896 538 1460 8 77 15
152 15 168 l0 27 -1388 0 -1389 0 -7 -1396z m2640 1239 c-46 -597 -239 -1114
-573 -1528 -78 -97 -271 -292 -343 -347 l-36 -27 -92 19 c-117 24 -158 48
-256 151 l-79 82 -35 -44 c-107 -133 -234 -232 -356 -280 -159 -62 -303 -73
-483 -38 -169 33 -184 41 -269 156 l-54 72 0 935 0 936 1291 0 1291 0 -6 -87z
m-1218 -1941 c31 -17 74 -33 95 -37 20 -4 37 -10 37 -14 0 -13 -116 -83 -259
-155 -384 -194 -782 -324 -1143 -371 l-48 -6 0 231 c0 217 1 232 18 225 56
-22 208 -56 295 -66 307 -36 598 62 800 269 l49 49 49 -47 c27 -26 75 -61 107
-78z"/>
<path d="M7510 6907 c-81 -27 -151 -68 -208 -121 l-44 -40 -176 3 c-225 3
-296 -10 -447 -83 -87 -43 -270 -161 -318 -206 -5 -4 -3 -17 4 -28 11 -18 10
-24 -5 -41 -16 -18 -17 -23 -5 -38 25 -30 126 -90 209 -123 45 -18 84 -38 86
-45 3 -7 -18 -77 -47 -156 -70 -193 -89 -267 -96 -372 l-6 -89 79 7 c198 17
342 53 472 120 101 51 135 49 209 -16 96 -85 275 -189 325 -189 26 0 85 225
94 360 8 119 -20 512 -41 576 l-17 50 40 58 c22 31 54 95 71 140 33 92 65 232
56 247 -12 18 -167 10 -235 -14z m110 -102 c0 -24 -45 -140 -74 -189 l-27 -46
-73 62 c-41 35 -73 67 -72 73 1 5 27 26 57 46 84 57 189 87 189 54z m-348
-193 c93 -43 161 -109 205 -200 36 -71 38 -82 38 -166 0 -84 -3 -97 -36 -166
-45 -94 -112 -163 -199 -204 -59 -28 -74 -31 -165 -31 -83 0 -109 4 -149 23
-161 74 -256 214 -256 377 0 184 118 338 300 391 73 22 188 11 262 -24z m-607
-93 c-35 -53 -75 -160 -75 -203 -1 -18 -2 -19 -13 -5 -7 9 -40 28 -74 44 -94
42 -94 45 -11 102 77 53 200 124 205 119 2 -2 -12 -28 -32 -57z m188 -726 c20
-14 37 -29 37 -33 0 -16 -220 -70 -287 -70 -34 0 -34 1 -28 33 3 17 22 83 41
145 l35 114 82 -81 c45 -45 99 -93 120 -108z m676 65 c-9 -94 -28 -200 -39
-217 -6 -11 -21 -6 -68 19 -33 17 -72 44 -86 59 l-26 27 67 47 c38 25 88 66
113 91 24 26 45 46 45 46 1 0 -2 -33 -6 -72z"/>
<path d="M7027 6486 c-57 -21 -104 -62 -137 -119 -25 -43 -30 -63 -30 -117 0
-230 251 -345 427 -196 46 38 83 119 83 179 0 72 -18 122 -64 174 -72 82 -182
113 -279 79z m130 -96 c25 0 93 -72 103 -109 29 -109 -81 -215 -189 -182 -48
14 -98 68 -107 116 -7 41 16 113 46 140 25 23 90 46 115 40 11 -3 26 -5 32 -5z"/>
<path d="M2828 7012 l3 -99 -88 -7 c-48 -3 -132 -9 -185 -12 l-98 -7 0 -30 0
-30 193 7 c105 4 208 9 228 12 31 5 35 9 32 32 -2 15 -7 72 -11 127 l-7 100
-35 3 -35 3 3 -99z"/>
<path d="M9106 7062 c-11 -54 -36 -222 -36 -242 0 -16 7 -20 34 -20 37 0 38 0
51 100 15 109 10 103 74 95 31 -4 59 -10 63 -13 3 -4 0 -45 -8 -92 -7 -47 -14
-88 -14 -91 0 -4 16 -9 35 -11 19 -2 35 -3 35 -2 0 7 32 172 35 181 3 10 15 9
51 -2 25 -7 47 -15 49 -17 1 -2 -3 -37 -11 -78 -20 -112 -19 -117 17 -125 17
-4 32 -5 34 -3 5 5 47 270 43 273 -2 2 -91 17 -198 34 -107 17 -207 34 -222
36 -22 4 -27 0 -32 -23z"/>
<path d="M2795 6694 c-60 -41 -145 -99 -187 -127 -68 -46 -78 -56 -78 -82 0
-56 -2 -55 255 -62 224 -6 238 -5 232 11 -4 10 -7 26 -7 37 0 16 -8 19 -57 19
l-58 0 -23 77 c-19 61 -21 78 -10 85 7 4 28 18 46 29 17 11 32 24 32 29 0 17
-20 60 -27 60 -5 0 -57 -34 -118 -76z m4 -141 c18 -64 19 -63 -75 -63 -50 0
-83 4 -79 9 7 12 127 91 137 91 4 0 12 -17 17 -37z"/>
<path d="M9124 6679 c-73 -21 -123 -107 -108 -185 6 -34 73 -114 95 -114 4 0
17 13 27 28 l20 28 -24 23 c-33 32 -55 76 -48 95 3 9 22 25 41 37 28 18 44 21
88 16 63 -6 133 -35 163 -68 43 -45 18 -120 -45 -135 -19 -5 -23 -13 -23 -44
l0 -38 43 10 c60 13 86 33 109 85 23 53 18 105 -16 155 -29 44 -77 74 -154 98
-68 21 -117 24 -168 9z"/>
<path d="M8950 6328 c0 -7 -3 -22 -6 -34 -5 -17 2 -24 43 -39 26 -10 67 -26
91 -36 l42 -18 -25 -68 c-14 -37 -27 -68 -29 -70 -2 -2 -46 12 -99 31 l-96 34
-6 -29 c-4 -16 -5 -32 -4 -36 3 -11 412 -171 422 -166 4 2 7 19 7 37 0 32 -3
34 -72 61 -40 15 -75 29 -76 31 -5 4 41 144 47 144 4 0 44 -13 91 -29 l85 -29
8 30 c5 17 5 34 0 38 -11 10 -398 160 -412 160 -6 0 -11 -6 -11 -12z"/>
<path d="M2785 6284 c-82 -7 -157 -13 -165 -13 -35 -2 -43 -17 -27 -48 l15
-29 129 13 c70 8 145 12 166 11 l39 -3 -131 -99 c-133 -101 -143 -115 -120
-157 10 -19 11 -19 42 3 18 12 102 76 187 142 85 66 156 120 157 121 1 1 -3
18 -9 38 l-11 37 -61 -1 c-34 -1 -128 -7 -211 -15z"/>
<path d="M8793 5956 l-10 -33 66 -32 c36 -18 88 -47 116 -64 l50 -32 -45 -7
c-25 -3 -95 -7 -155 -7 l-111 -1 -17 -29 -17 -30 102 -54 c197 -104 301 -157
308 -157 5 0 13 14 19 30 l10 30 -97 49 c-53 27 -108 58 -122 70 l-25 20 157
1 157 0 16 31 c21 39 31 31 -206 153 l-186 96 -10 -34z"/>
<path d="M3132 5868 c-22 -46 -43 -91 -46 -102 -5 -15 -12 -17 -34 -11 -85 23
-169 -12 -192 -80 -15 -46 -4 -77 63 -182 l52 -83 192 127 192 127 -15 28 c-8
15 -17 28 -20 28 -3 0 -36 -18 -72 -39 -95 -56 -106 -56 -110 -3 -3 34 5 56
37 116 23 40 41 78 41 83 0 5 -11 24 -24 41 l-23 32 -41 -82z m-90 -205 c27
-30 48 -65 48 -82 0 -6 -21 -22 -46 -37 l-46 -27 -19 24 c-10 13 -25 38 -34
56 -36 74 40 126 97 66z"/>
<path d="M3260 5428 c-141 -228 -142 -230 -109 -264 l26 -26 39 20 c22 10 118
50 214 87 96 38 176 70 178 71 2 1 -1 11 -7 21 -26 45 -25 45 -79 24 l-51 -21
-50 62 -50 61 30 44 30 43 -21 30 c-12 17 -25 30 -29 30 -4 0 -58 -82 -121
-182z m126 -117 c-8 -13 -135 -65 -142 -58 -3 3 14 35 37 72 l43 68 33 -37
c19 -20 31 -40 29 -45z"/>
<path d="M8595 5573 c-94 -26 -144 -157 -96 -251 43 -83 154 -161 240 -170 96
-9 181 70 181 169 0 80 -75 181 -171 229 -41 22 -119 33 -154 23z m121 -93
c23 -12 61 -41 83 -65 36 -39 41 -51 41 -90 0 -79 -63 -116 -144 -85 -39 14
-117 90 -133 129 -20 46 -8 88 30 112 41 24 70 24 123 -1z"/>
<path d="M8277 5208 l-85 -91 21 -29 22 -30 68 71 68 71 138 -135 138 -135 23
25 24 26 -159 159 c-88 88 -163 160 -167 160 -3 0 -45 -41 -91 -92z"/>
<path d="M3573 5201 c-59 -27 -140 -106 -169 -163 -44 -87 -29 -140 68 -247
l46 -51 139 129 c76 71 151 142 167 159 l29 31 -47 55 c-26 31 -61 65 -77 77
-43 30 -104 34 -156 10z m141 -101 l38 -38 -103 -101 c-66 -63 -112 -100 -126
-101 -33 0 -67 61 -60 110 7 54 36 91 109 140 71 47 85 46 142 -10z"/>
<path d="M3885 5000 c-4 -6 -9 -56 -12 -111 l-6 -99 -31 0 c-102 0 -183 -123
-130 -198 17 -25 162 -142 175 -142 11 0 76 84 188 240 l90 125 -25 23 c-14
12 -28 22 -32 22 -4 -1 -28 -32 -55 -70 -48 -72 -72 -85 -97 -55 -11 14 -10
111 3 218 3 22 -58 63 -68 47z m8 -315 c45 -31 47 -57 8 -104 l-28 -34 -31 22
c-39 27 -72 69 -72 89 0 25 31 52 59 52 15 0 43 -11 64 -25z"/>
<path d="M8050 4991 c-19 -10 -48 -35 -65 -55 -59 -74 -33 -196 63 -293 101
-100 205 -110 284 -26 75 79 61 186 -41 295 -86 94 -166 120 -241 79z m141
-90 c97 -61 140 -181 84 -236 -52 -53 -136 -23 -205 72 -51 72 -54 120 -11
164 38 37 74 37 132 0z"/>
<path d="M4146 4558 c-26 -123 -50 -230 -52 -239 -3 -10 8 -21 32 -32 l36 -17
51 46 c29 26 107 97 175 157 l122 111 -22 23 c-12 13 -25 23 -30 23 -4 0 -26
-16 -48 -36 l-40 -36 -43 25 c-83 49 -88 56 -76 111 11 46 10 50 -12 67 -13
10 -29 19 -35 19 -6 0 -32 -100 -58 -222z m156 -48 c5 -3 -17 -30 -47 -60 -30
-30 -57 -51 -61 -48 -5 6 9 92 22 141 5 16 8 16 42 -4 20 -12 40 -25 44 -29z"/>
<path d="M7710 4738 c-49 -14 -97 -53 -120 -98 -26 -52 -25 -62 10 -129 55
-101 49 -98 123 -55 64 37 65 37 54 68 -5 17 -11 32 -12 34 -1 1 -21 -5 -45
-13 -23 -8 -46 -12 -51 -9 -15 9 -10 68 9 90 62 77 160 42 220 -79 37 -73 23
-147 -32 -176 -21 -12 -33 -12 -71 -1 -43 12 -48 11 -67 -7 -25 -25 -19 -37
32 -63 52 -27 94 -25 147 5 115 68 114 235 -3 364 -59 66 -124 89 -194 69z"/>
<path d="M4564 4522 c-63 -40 -94 -105 -80 -169 4 -16 36 -62 71 -103 36 -40
65 -79 65 -85 0 -14 -31 -25 -71 -25 -28 0 -59 27 -59 52 0 27 -11 48 -25 48
-7 0 -15 5 -17 12 -7 20 -27 -2 -34 -37 -18 -99 113 -188 206 -140 31 16 47
39 61 87 14 50 -1 87 -62 153 -67 71 -75 104 -34 131 31 20 79 11 100 -19 8
-12 15 -38 15 -58 0 -37 12 -49 50 -49 24 0 34 66 17 116 -25 76 -140 125
-203 86z"/>
<path d="M7338 4523 c-25 -6 -23 -17 17 -117 l36 -87 -10 -142 c-5 -78 -8
-143 -6 -145 5 -5 60 20 67 31 4 7 8 54 8 106 l0 93 38 -27 c20 -16 56 -46 78
-67 l42 -40 31 17 c18 9 30 22 28 28 -2 7 -33 36 -68 66 -122 102 -141 124
-182 208 -22 46 -45 82 -51 82 -6 -1 -19 -3 -28 -6z"/>
<path d="M7030 4329 c-128 -53 -125 -230 5 -279 42 -16 96 -4 138 31 99 81 50
236 -80 254 -21 2 -49 0 -63 -6z"/>
<path d="M6735 4269 c-177 -50 -175 -49 -175 -68 0 -45 9 -51 68 -45 l57 6 44
-176 43 -176 34 0 c19 0 34 5 34 11 0 5 -18 80 -40 165 -22 85 -40 168 -40
184 0 27 4 30 40 36 39 6 40 8 40 45 0 46 -3 47 -105 18z"/>
<path d="M5272 4244 c-32 -22 -52 -67 -52 -117 0 -53 18 -79 101 -143 50 -38
59 -49 53 -67 -11 -37 -35 -57 -70 -57 -37 0 -68 32 -79 80 -6 26 -11 30 -41
30 -30 0 -34 -3 -30 -22 3 -13 7 -39 11 -59 15 -98 176 -144 239 -68 36 43 51
104 36 151 -8 29 -27 51 -76 89 -62 49 -83 82 -70 114 4 12 15 14 43 10 58
-10 61 -12 68 -44 7 -33 30 -51 64 -51 47 0 12 106 -49 148 -39 26 -114 30
-148 6z"/>
<path d="M4936 4240 c-68 -21 -115 -102 -102 -174 9 -46 67 -103 114 -112 48
-9 120 22 149 65 28 42 31 110 6 153 -32 54 -109 85 -167 68z"/>
<path d="M5572 4167 c-18 -88 -35 -301 -28 -338 18 -98 172 -138 241 -63 16
18 28 50 39 112 13 74 36 259 36 292 0 5 -15 10 -34 10 l-34 0 -6 -62 c-14
-130 -39 -278 -50 -293 -6 -8 -25 -18 -43 -21 -26 -5 -37 -1 -59 21 -26 26
-26 29 -20 103 3 43 12 119 18 170 12 96 10 105 -28 116 -19 6 -22 1 -32 -47z"/>
<path d="M6385 4208 c-4 -13 -85 -441 -85 -452 0 -3 -10 -6 -22 -6 -18 0 -36
21 -81 91 l-58 91 25 27 c47 49 59 116 31 176 -23 46 -51 55 -177 55 l-111 0
7 -147 c3 -82 9 -187 12 -235 l7 -88 34 0 35 0 -7 100 -7 100 25 0 c37 0 68
-31 111 -109 l39 -71 103 0 c113 0 114 0 114 77 0 35 4 37 113 46 l47 5 21
-49 c16 -37 27 -49 43 -49 55 1 54 8 -46 232 l-96 213 -36 3 c-23 2 -38 -2
-41 -10z m-279 -98 c22 0 24 -4 24 -49 0 -54 2 -53 -92 -66 l-46 -7 -7 55 c-9
73 -3 81 53 73 25 -3 55 -6 68 -6z m393 -157 c1 -9 -15 -13 -49 -13 -27 0 -50
2 -50 5 0 5 19 103 27 135 5 22 10 17 39 -45 18 -38 33 -76 33 -82z"/>
<path d="M1982 10605 c-114 -25 -169 -44 -269 -95 -251 -127 -411 -337 -528
-693 -29 -89 -84 -243 -123 -342 -38 -99 -75 -198 -82 -220 -7 -22 -33 -80
-57 -129 -35 -70 -48 -112 -63 -200 -11 -61 -30 -149 -44 -196 -97 -333 -142
-585 -206 -1145 -12 -98 -20 -132 -20 -84 -1 42 -56 166 -103 232 -58 80 -152
167 -237 217 -68 41 -199 95 -208 86 -3 -3 12 -32 32 -63 60 -93 83 -149 126
-308 67 -246 119 -335 227 -392 99 -53 95 -54 131 34 17 43 33 87 34 98 2 11
7 -144 10 -345 3 -201 4 -367 2 -369 -2 -2 -24 15 -49 37 -52 45 -155 108
-230 139 -105 44 -326 71 -325 41 1 -7 25 -30 55 -51 60 -42 113 -107 200
-247 145 -234 221 -299 369 -316 l51 -6 38 -182 c21 -99 38 -184 37 -188 0 -4
-37 11 -82 32 -171 79 -458 121 -458 66 0 -7 29 -32 64 -55 69 -44 122 -101
235 -253 119 -161 200 -219 327 -237 36 -6 69 -12 72 -15 3 -3 26 -57 52 -118
26 -62 77 -177 113 -256 l66 -143 -44 39 c-61 53 -164 106 -260 133 -121 34
-414 32 -403 -3 2 -6 38 -30 79 -52 58 -32 102 -69 204 -174 151 -155 227
-213 309 -237 64 -19 156 -16 182 6 9 7 14 31 14 67 0 44 -7 70 -35 124 -43
83 -39 90 5 11 44 -79 193 -313 251 -395 41 -57 46 -68 33 -79 -11 -9 -18 -9
-32 4 -9 9 -60 30 -112 48 -90 31 -102 33 -235 32 -141 0 -234 -16 -243 -41
-2 -6 8 -16 23 -22 108 -41 157 -76 329 -232 168 -153 261 -189 417 -163 l42
7 -7 77 -6 76 64 -71 c36 -39 109 -122 164 -185 l101 -114 -129 -12 c-74 -7
-160 -23 -202 -36 -70 -22 -178 -83 -178 -99 0 -5 17 -8 38 -8 70 0 156 -31
307 -109 210 -110 282 -134 367 -128 37 3 88 15 114 26 l47 21 52 -39 c29 -22
105 -84 170 -137 l119 -98 -99 -13 c-160 -20 -312 -76 -400 -148 l-30 -25 45
0 c72 0 170 -25 276 -70 329 -138 420 -148 553 -59 l59 39 129 -76 c70 -43
141 -85 158 -95 27 -16 28 -18 10 -25 -90 -32 -202 -83 -262 -120 -94 -58
-230 -204 -167 -180 8 3 44 10 80 16 68 11 156 4 329 -27 50 -8 131 -16 180
-16 101 -2 148 14 235 78 l47 35 139 -63 c213 -97 243 -114 219 -123 -57 -21
-168 -75 -220 -108 -103 -67 -225 -195 -225 -237 0 -18 3 -17 53 4 50 21 63
22 297 19 337 -3 386 9 487 123 l49 55 195 -63 c107 -35 216 -70 242 -78 l49
-14 -87 -59 c-178 -121 -292 -266 -329 -418 -6 -26 -5 -26 102 29 99 50 122
57 297 93 105 21 216 48 249 60 70 27 125 79 152 143 32 79 56 62 79 -58 20
-108 59 -192 130 -277 54 -67 189 -181 225 -193 26 -8 83 25 175 102 137 115
227 257 247 391 10 64 14 72 33 72 12 0 43 3 68 6 44 6 45 6 52 -24 10 -48 76
-115 142 -145 32 -14 121 -37 198 -52 175 -33 277 -63 383 -114 92 -45 94 -43
61 41 -49 124 -173 267 -312 358 -45 30 -63 47 -54 52 9 6 291 101 452 152 17
5 23 0 33 -29 17 -46 92 -110 155 -132 46 -16 82 -18 296 -15 193 2 258 -1
310 -13 103 -25 111 -26 111 -17 0 5 -36 48 -81 95 -96 103 -216 186 -325 226
-43 16 -79 33 -81 37 -2 8 219 110 333 153 l51 20 49 -36 c124 -89 188 -97
449 -53 176 30 196 31 273 21 45 -7 89 -14 97 -17 36 -14 9 27 -65 98 -65 63
-99 87 -182 127 -57 28 -124 56 -150 63 -27 7 -48 15 -48 18 0 3 66 46 148 95
81 49 157 95 169 103 21 13 23 12 36 -21 17 -38 65 -63 154 -77 83 -14 162 5
361 86 150 61 200 77 270 85 48 6 91 14 95 19 5 4 -11 19 -35 33 -128 75 -264
120 -408 135 l-75 7 80 68 c44 38 121 100 170 138 l90 68 68 -24 c126 -46 188
-33 442 95 184 93 259 120 331 120 19 0 34 4 34 9 0 12 -86 66 -135 85 -72 27
-128 38 -252 50 l-122 11 167 186 c92 103 168 186 169 185 1 -1 -3 -23 -9 -50
-8 -40 -7 -55 5 -81 14 -29 22 -34 64 -39 124 -17 243 40 405 192 121 113 196
167 283 203 30 12 55 26 55 30 0 3 -28 15 -62 25 -47 14 -95 19 -188 19 -133
-1 -206 -14 -322 -62 -33 -13 -62 -23 -64 -21 -1 2 58 96 131 208 l135 205 0
-67 c0 -93 11 -102 113 -95 122 8 164 34 353 219 120 118 181 170 243 207 45
27 79 51 74 54 -4 3 -46 11 -92 17 -191 28 -409 -25 -552 -134 l-46 -35 110
242 c60 133 112 245 116 249 3 4 40 14 80 23 123 26 191 81 331 265 96 126
179 210 234 237 26 12 36 23 36 40 0 22 -4 23 -64 23 -123 0 -306 -44 -415
-99 -23 -12 -45 -21 -47 -18 -2 2 11 69 30 148 19 79 38 160 41 180 6 34 10
37 48 43 156 24 224 86 382 346 71 117 131 189 190 227 74 46 62 57 -57 50
-158 -8 -303 -68 -446 -185 l-54 -44 6 39 c6 39 26 437 26 530 l0 53 34 -37
34 -38 62 30 c119 57 172 144 240 390 50 182 63 217 98 268 34 48 65 107 60
112 -6 7 -107 -33 -175 -69 -138 -73 -247 -184 -324 -329 -23 -43 -40 -66 -43
-57 -2 8 -9 65 -16 125 -13 126 -57 468 -66 505 -4 21 -1 19 21 -12 14 -21 46
-50 72 -65 l46 -27 49 54 c26 30 58 79 70 109 22 53 23 69 23 336 0 249 2 286
19 338 16 49 17 60 6 67 -34 21 -187 -151 -259 -290 -44 -85 -81 -204 -81
-264 0 -22 -2 -37 -4 -35 -3 2 -41 139 -85 304 -92 346 -235 755 -327 937 -20
40 -52 119 -70 175 -138 425 -404 687 -779 764 -49 10 -100 19 -113 19 -21 0
-22 -3 -16 -37 22 -121 105 -311 195 -447 143 -217 363 -377 617 -451 l74 -21
29 -70 c50 -117 120 -306 116 -310 -2 -3 -46 9 -97 27 -155 51 -324 51 -446
-1 -54 -24 -56 -44 -6 -61 81 -26 123 -57 262 -198 177 -179 216 -203 351
-209 l88 -4 16 -55 c43 -148 108 -423 100 -423 -1 0 -39 25 -84 55 -108 72
-187 96 -316 98 -65 0 -121 -5 -161 -16 -73 -20 -143 -49 -129 -53 6 -1 37 -8
69 -14 59 -12 62 -15 215 -164 86 -84 175 -165 199 -180 52 -32 139 -56 209
-56 40 0 55 -4 62 -17 10 -20 27 -144 36 -268 3 -44 8 -90 10 -102 4 -14 -24
7 -83 66 -95 95 -182 147 -297 176 -61 15 -235 21 -234 8 0 -5 29 -32 65 -62
53 -44 71 -67 103 -135 21 -44 64 -134 96 -199 39 -83 70 -132 101 -164 54
-53 151 -101 223 -110 l52 -6 -6 -161 c-7 -195 -22 -361 -40 -458 -11 -61 -13
-66 -14 -33 -2 66 -27 167 -59 236 -81 177 -254 317 -415 336 l-52 6 18 -24
c59 -83 88 -171 107 -329 31 -252 87 -359 234 -445 l48 -28 24 29 c36 43 66
92 81 133 13 35 14 35 7 -24 -10 -98 -42 -272 -73 -400 -27 -109 -167 -531
-221 -665 -50 -126 -154 -331 -161 -318 -4 7 -17 52 -29 98 -12 47 -38 117
-58 155 -49 94 -165 211 -251 253 -35 18 -66 30 -69 28 -2 -3 8 -39 23 -81
l28 -75 -7 -213 c-10 -288 7 -358 116 -473 45 -48 48 -54 37 -76 -23 -44 -132
-203 -173 -252 l-41 -50 -7 90 c-11 154 -78 303 -186 409 -51 51 -158 122
-168 112 -3 -3 4 -40 16 -84 25 -87 24 -134 -5 -343 -27 -187 -6 -292 79 -408
l44 -59 -58 -69 c-159 -190 -542 -544 -795 -734 -138 -103 -285 -204 -285
-196 0 3 14 25 30 48 66 95 98 249 80 385 -13 102 -30 156 -76 243 -34 63
-100 148 -108 139 -3 -2 -9 -48 -15 -101 -9 -91 -14 -107 -85 -255 -89 -186
-111 -261 -103 -353 4 -50 46 -192 61 -207 1 -1 19 2 40 8 21 6 40 8 42 6 3
-2 -44 -36 -103 -75 -250 -163 -826 -457 -1032 -527 l-69 -23 35 76 c70 155
89 299 58 446 -8 38 -27 88 -42 110 l-27 41 -17 -57 c-24 -83 -50 -119 -189
-263 -176 -183 -203 -239 -204 -420 l-1 -89 -165 -53 c-156 -51 -349 -103
-379 -103 -7 0 13 20 46 43 108 80 175 175 219 312 37 117 43 233 15 324 -12
39 -25 71 -29 71 -4 0 -15 -20 -25 -45 -28 -67 -89 -129 -232 -235 -135 -100
-168 -132 -210 -205 -28 -47 -55 -156 -55 -222 l0 -41 70 -12 c110 -19 94 -33
-76 -69 -54 -12 -106 -24 -115 -27 -12 -3 -19 8 -28 51 -30 134 -141 302 -309
468 l-99 99 -61 -74 c-73 -90 -182 -250 -216 -315 -13 -27 -36 -84 -52 -128
-15 -44 -29 -82 -30 -83 -1 -2 -53 9 -116 25 l-113 28 68 6 c37 3 73 11 80 18
7 7 12 42 12 90 0 69 -4 85 -38 153 -43 87 -92 136 -243 245 -126 90 -163 128
-199 203 -16 33 -32 60 -36 60 -4 0 -15 -29 -24 -64 -24 -88 -17 -254 14 -346
43 -124 135 -247 236 -315 38 -25 39 -26 10 -19 -192 46 -425 119 -600 187
l-80 32 62 6 c34 3 69 12 78 19 23 19 20 155 -6 232 -28 84 -61 129 -209 282
-108 113 -131 142 -149 192 -40 111 -50 115 -79 32 -86 -246 -23 -512 163
-692 22 -22 25 -27 10 -22 -11 4 -38 14 -60 21 -153 48 -590 255 -898 424
-174 96 -401 244 -334 218 7 -2 28 3 47 12 30 14 38 26 57 81 25 72 30 174 12
250 -5 25 -47 122 -92 215 -80 166 -82 172 -83 249 -1 62 -5 81 -18 88 -20 11
-38 -8 -90 -92 -116 -186 -127 -448 -28 -636 l38 -72 -85 56 c-104 66 -285
203 -402 304 -173 148 -461 428 -608 590 l-42 46 49 65 c88 116 106 217 77
432 -22 160 -22 285 -1 344 9 24 16 48 16 52 0 23 -112 -51 -177 -116 -54 -55
-81 -93 -111 -157 -44 -90 -72 -199 -72 -274 l0 -47 -26 24 c-14 13 -66 83
-114 155 l-88 132 49 52 c27 29 63 82 81 118 l33 67 0 270 c1 250 2 275 22
330 12 33 20 61 18 63 -7 7 -104 -48 -153 -88 -103 -81 -180 -205 -226 -361
l-23 -82 -36 68 c-144 272 -331 831 -382 1146 -8 52 -15 108 -15 124 l1 30 19
-37 c24 -44 55 -68 90 -68 33 0 108 53 151 105 64 80 78 127 124 419 17 107
53 201 91 237 37 35 30 42 -35 36 -193 -21 -400 -231 -454 -462 -8 -33 -17
-53 -20 -45 -7 18 -24 251 -33 445 l-7 140 59 13 c83 17 141 48 200 107 52 51
65 76 185 334 36 78 54 103 111 156 78 72 76 75 -36 75 -141 0 -293 -64 -412
-173 l-67 -62 7 115 c4 63 12 144 19 180 l13 65 76 6 c126 11 164 34 363 228
l174 169 60 7 c34 4 59 11 56 16 -3 4 -43 20 -88 35 -66 21 -101 26 -182 26
-135 1 -241 -33 -372 -119 l-21 -14 19 86 c10 47 32 139 50 203 17 64 33 127
36 139 4 17 15 23 57 28 158 19 212 52 386 232 102 106 136 135 185 157 33 15
74 33 90 40 l30 14 -55 26 c-30 14 -80 31 -110 37 -100 21 -298 -1 -402 -46
-15 -6 -13 5 11 77 54 158 113 289 135 298 12 5 68 27 126 50 58 23 141 62
185 88 90 52 231 182 306 282 62 82 167 293 213 428 l35 102 -37 -1 c-20 0
-66 -7 -100 -14z m4021 -8217 c84 -92 169 -210 211 -298 40 -83 41 -88 41
-190 0 -102 -1 -109 -37 -180 -46 -92 -99 -155 -196 -232 l-74 -58 -31 22
c-68 47 -176 168 -208 234 -28 56 -34 80 -37 157 -6 116 8 179 68 302 47 96
185 295 204 295 6 0 32 -24 59 -52z"/>
<path d="M5905 2064 c-69 -36 -95 -79 -95 -159 0 -112 67 -185 172 -185 56 0
58 1 114 55 l56 55 -4 75 c-4 85 -21 117 -84 152 -46 27 -116 30 -159 7z"/>
<path d="M541 9770 c26 -86 31 -164 21 -335 -11 -178 -1 -288 33 -362 25 -55
104 -143 129 -143 18 0 92 83 116 130 62 123 50 293 -34 464 -70 143 -213 306
-268 306 -14 0 -14 -6 3 -60z"/>
<path d="M11425 9812 c-72 -44 -182 -189 -240 -315 -42 -93 -58 -164 -58 -257
0 -113 23 -178 88 -247 l54 -58 37 20 c51 27 96 88 119 161 20 62 23 134 17
429 -3 143 4 201 33 268 10 23 -11 22 -50 -1z"/>
<path d="M362 9007 c-8 -9 -6 -30 9 -78 17 -53 20 -85 17 -194 -7 -317 -3
-395 24 -462 32 -78 93 -151 139 -168 17 -6 104 102 133 165 17 36 21 62 20
135 -3 144 -42 264 -129 395 -45 68 -180 220 -195 220 -4 0 -12 -6 -18 -13z"/>
<path d="M1328 6366 c-231 -96 -398 -359 -374 -587 8 -80 41 -160 84 -208 l37
-40 39 14 c51 18 121 87 151 150 33 67 55 172 55 270 1 163 17 274 50 336 29
57 38 89 23 89 -5 -1 -34 -11 -65 -24z"/>
<path d="M10600 6379 c0 -6 16 -47 35 -90 35 -77 36 -82 45 -266 10 -202 22
-262 66 -343 29 -53 98 -123 148 -150 27 -14 29 -13 58 20 16 19 44 64 61 100
30 61 32 72 32 170 0 84 -5 119 -23 172 -32 91 -105 202 -178 266 -77 69 -244
152 -244 121z"/>
<path d="M2357 4430 c-56 -63 -102 -144 -134 -240 -14 -42 -18 -86 -18 -185 0
-112 3 -139 24 -195 38 -104 77 -157 147 -196 71 -40 93 -42 121 -11 47 51 67
108 71 209 5 108 -7 161 -79 339 -48 123 -66 212 -52 267 9 35 8 43 -7 57 -16
15 -21 12 -73 -45z"/>
<path d="M9569 4478 c-1 -7 -2 -56 -3 -108 -2 -88 -6 -104 -53 -225 -28 -71
-58 -154 -67 -184 -32 -108 -16 -237 42 -344 30 -56 38 -56 137 -4 43 23 69
46 92 80 143 214 110 538 -75 739 -54 58 -71 69 -73 46z"/>
<path d="M8386 3493 c-2 -10 -10 -46 -17 -80 -10 -57 -20 -73 -126 -205 -173
-217 -207 -304 -183 -464 8 -56 17 -87 27 -91 39 -15 178 30 246 81 45 33 121
155 148 237 34 104 35 290 2 395 -33 104 -84 171 -97 127z"/>
<path d="M3576 3493 c-4 -4 -16 -27 -27 -52 -61 -139 -71 -326 -25 -468 59
-181 177 -293 336 -318 64 -10 89 35 90 160 0 128 -32 195 -176 373 -104 129
-144 199 -152 267 -3 34 -9 45 -22 45 -9 0 -20 -3 -24 -7z"/>
<path d="M2362 1703 c6 -21 29 -89 53 -153 68 -185 75 -163 -62 -206 -153 -48
-224 -75 -221 -85 4 -10 164 -110 653 -407 203 -124 417 -254 475 -290 85 -52
165 -92 186 -92 2 0 4 24 6 53 l3 53 215 -83 c279 -108 458 -168 707 -236 347
-96 754 -170 1083 -197 74 -6 171 -16 215 -22 44 -6 103 -10 130 -9 28 0 145
1 260 1 339 1 833 54 1219 131 381 76 786 195 1189 348 59 23 109 41 112 41 3
0 5 -35 6 -77 0 -43 3 -85 7 -95 7 -17 96 37 711 437 630 409 591 375 469 418
-40 15 -112 38 -159 52 l-87 27 13 46 c7 26 30 94 52 152 47 123 57 160 44
160 -13 0 -147 -73 -521 -285 -377 -213 -454 -255 -467 -255 -6 0 -13 32 -15
70 -3 39 -8 73 -11 77 -3 3 -219 -51 -479 -121 -996 -265 -1338 -339 -1823
-397 -218 -26 -661 -36 -871 -20 -593 47 -1127 207 -1789 536 -138 69 -256
125 -263 125 -9 0 -12 -28 -12 -100 l0 -100 -92 46 c-51 26 -223 117 -383 204
-399 216 -540 290 -553 290 -7 0 -7 -11 0 -37z m595 -328 l442 -237 3 -302 c2
-165 2 -302 2 -304 -2 -3 -1034 623 -1163 705 -24 15 -20 17 124 64 82 27 153
53 158 58 5 5 -11 64 -42 145 -28 75 -51 141 -51 147 0 6 19 0 43 -14 23 -13
241 -131 484 -262z m6608 188 c-4 -16 -27 -82 -51 -147 -25 -65 -42 -121 -39
-124 3 -4 74 -29 157 -57 l152 -52 -110 -73 c-183 -123 -1027 -671 -1029 -668
-10 16 -25 265 -25 418 l1 195 222 123 c122 67 335 187 472 266 138 79 252
144 254 145 2 1 0 -11 -4 -26z m-5550 -503 c859 -364 1619 -458 2555 -314 420
64 1030 209 1952 464 l66 18 7 -82 c3 -44 5 -184 3 -310 l-3 -229 -149 -58
c-581 -229 -1212 -381 -1846 -445 -218 -21 -722 -29 -950 -15 -680 44 -1326
192 -1980 453 -124 50 -231 93 -238 95 -11 5 -13 55 -8 277 3 149 9 305 12
347 l5 77 212 -107 c117 -59 280 -136 362 -171z"/>
<path d="M3644 1128 c-4 -6 -10 -94 -12 -195 l-5 -182 27 -11 c15 -5 29 -10
32 -10 2 0 4 57 4 128 0 70 3 151 7 180 5 47 8 52 27 46 29 -8 113 -65 166
-113 l45 -40 -22 -16 c-19 -13 -23 -26 -23 -70 0 -81 -4 -86 -49 -70 -21 7
-48 19 -59 26 -22 14 -49 65 -39 75 3 3 33 -2 67 -10 76 -20 73 -20 60 4 -25
46 -129 68 -149 31 -25 -46 39 -138 124 -178 35 -16 40 -23 43 -55 2 -27 9
-39 23 -43 11 -4 23 -5 25 -2 11 11 16 175 6 209 -9 35 -8 39 15 56 l25 18
-98 92 c-121 114 -218 166 -240 130z"/>
<path d="M8170 857 c0 -129 2 -143 19 -154 27 -17 31 4 31 165 l0 132 -25 0
-25 0 0 -143z"/>
<path d="M8030 795 l0 -155 25 0 26 0 -3 146 c-3 142 -4 147 -25 155 l-23 8 0
-154z"/>
<path d="M4012 818 c-30 -30 -4 -73 76 -125 66 -42 55 -55 -19 -23 -28 11 -55
20 -61 18 -15 -5 70 -108 112 -135 40 -28 70 -32 49 -7 -7 8 -26 22 -43 31
l-31 16 33 15 c24 12 32 22 32 42 0 33 -13 49 -71 88 -25 17 -51 37 -58 46
-12 14 -11 16 6 16 22 0 78 -35 131 -81 18 -16 37 -29 42 -29 6 0 10 -37 10
-85 0 -72 3 -88 20 -105 11 -11 24 -20 29 -20 6 0 11 56 13 126 l3 126 -27 19
c-33 24 -36 24 -40 -2 -3 -19 -9 -17 -68 30 -67 52 -112 65 -138 39z"/>
<path d="M4626 748 c-15 -21 -14 -23 7 -35 29 -16 67 -16 67 0 0 19 -29 57
-45 57 -8 0 -21 -10 -29 -22z"/>
<path d="M7707 764 c-4 -4 -7 -24 -7 -44 0 -35 -1 -37 -57 -54 -113 -36 -145
-106 -78 -173 20 -20 38 -33 41 -30 3 3 -4 24 -16 46 -26 52 -16 75 43 102 70
31 71 31 64 -76 l-5 -95 36 -2 c61 -3 105 1 116 12 7 7 2 10 -14 10 -14 0 -42
5 -63 11 -37 10 -38 12 -23 28 14 15 16 39 14 142 -3 116 -4 124 -23 127 -12
2 -24 0 -28 -4z"/>
<path d="M4338 650 c-4 -183 -5 -173 22 -187 l25 -12 5 117 c3 64 4 122 2 127
-2 6 -14 18 -27 28 l-25 18 -2 -91z"/>
<path d="M7430 598 c0 -46 -3 -107 -7 -137 l-6 -54 29 7 c16 4 30 8 31 9 1 1
5 57 9 123 l7 121 -24 6 c-13 4 -27 7 -31 7 -5 0 -8 -37 -8 -82z"/>
<path d="M4615 620 c-4 -17 -11 -30 -16 -30 -5 0 -43 9 -85 21 -41 11 -78 18
-81 16 -6 -7 40 -78 66 -101 21 -19 21 -19 21 7 0 30 19 35 64 17 23 -9 25
-14 28 -86 3 -74 4 -78 29 -85 l26 -7 6 117 c5 118 2 132 -34 151 -14 8 -19 5
-24 -20z"/>
<path d="M7310 577 l0 -73 -39 -22 c-36 -20 -91 -30 -91 -16 0 4 13 22 30 40
30 34 48 80 36 91 -3 3 -26 9 -51 13 l-46 7 27 -28 26 -28 -25 -23 c-14 -13
-32 -29 -41 -36 -17 -14 -23 -57 -6 -47 5 3 20 -1 32 -9 25 -18 84 -21 122 -6
25 9 26 8 26 -25 0 -36 10 -42 44 -29 13 5 16 26 16 129 0 119 -1 123 -22 129
-13 3 -26 6 -30 6 -5 0 -8 -33 -8 -73z"/>
<path d="M5650 598 c-21 -12 -26 -23 -31 -78 -4 -36 -7 -116 -8 -177 l-1 -113
29 0 29 0 4 154 c3 108 8 159 17 170 23 27 81 19 170 -24 45 -22 87 -40 93
-40 21 0 -41 41 -114 75 -86 40 -152 51 -188 33z"/>
<path d="M4910 571 c0 -16 24 -29 70 -38 36 -7 46 -13 48 -31 6 -39 -14 -52
-69 -45 -38 4 -49 3 -49 -8 0 -19 131 -150 160 -161 29 -11 33 -7 24 26 -4 18
-13 26 -29 26 -12 0 -35 10 -50 22 l-27 21 35 19 c72 37 57 122 -30 167 -26
13 -83 15 -83 2z"/>
<path d="M6973 570 c-15 -6 -21 -14 -16 -26 6 -16 18 -16 87 2 22 5 26 3 26
-14 0 -32 -41 -73 -75 -75 -20 -2 -34 -10 -42 -27 -12 -24 -11 -26 19 -35 18
-5 42 -20 53 -33 22 -25 98 -42 109 -24 13 21 -6 44 -31 37 -28 -7 -63 2 -63
16 0 5 16 33 35 62 42 62 43 70 10 102 -25 26 -70 32 -112 15z"/>
<path d="M5130 497 c0 -30 -6 -48 -20 -60 -11 -9 -20 -21 -20 -27 0 -5 9 -10
20 -10 17 0 20 -7 20 -53 0 -55 12 -77 42 -77 16 0 18 11 18 123 0 123 0 124
-25 135 -36 16 -35 17 -35 -31z"/>
<path d="M5240 390 l0 -130 30 0 30 0 0 118 c0 118 0 119 -25 130 -14 7 -28
12 -30 12 -3 0 -5 -58 -5 -130z"/>
<path d="M5368 499 c-31 -17 -20 -29 27 -29 47 0 115 -22 115 -38 0 -5 -11
-19 -25 -32 -22 -21 -27 -22 -70 -11 -47 12 -65 9 -65 -12 0 -12 71 -77 134
-124 30 -23 86 -31 86 -14 0 18 -31 41 -55 41 -12 0 -33 8 -46 19 l-23 18 42
28 c35 23 42 33 42 59 0 41 -24 75 -66 92 -39 16 -72 17 -96 3z"/>
<path d="M6500 472 c0 -43 -11 -49 -93 -54 -43 -3 -83 -10 -88 -15 -7 -7 2
-21 26 -42 41 -36 55 -39 55 -11 0 19 14 26 70 32 24 3 25 1 28 -70 3 -73 3
-73 30 -70 l27 3 0 119 0 120 -27 7 c-25 7 -28 5 -28 -19z"/>
<path d="M5727 478 c-25 -9 -28 -14 -21 -37 5 -14 8 -46 9 -69 0 -68 46 -99
133 -92 18 1 22 -4 22 -28 0 -28 17 -41 53 -42 4 0 7 54 7 120 0 108 -2 120
-19 130 -36 19 -41 12 -41 -60 l0 -69 -37 -10 c-21 -6 -51 -11 -68 -11 l-30 1
30 22 c53 38 75 65 75 90 0 46 -60 75 -113 55z m63 -49 c0 -12 -7 -19 -20 -19
-22 0 -29 35 -7 43 18 6 27 -2 27 -24z"/>
<path d="M6640 470 c-29 -29 -25 -40 14 -40 41 0 65 23 46 45 -17 20 -36 19
-60 -5z"/>
<path d="M6007 428 c-7 -20 12 -48 32 -48 24 0 45 25 37 45 -7 18 -62 20 -69
3z"/>
<path d="M6642 341 c-25 -16 -10 -46 23 -46 25 0 30 4 30 25 0 27 -28 38 -53
21z"/>
<path d="M6022 299 c-34 -13 -25 -44 12 -44 35 0 59 30 36 45 -18 11 -18 11
-48 -1z"/>
</g>
</svg>
