<?xml version="1.0" encoding="UTF-8"?>
<svg xmlns="http://www.w3.org/2000/svg" xmlns:xlink="http://www.w3.org/1999/xlink" width="56px" height="56px" viewBox="0 0 56 56" version="1.1">
<g id="surface1">
<path style=" stroke:none;fill-rule:nonzero;fill:rgb(64.313725%,20.784314%,94.117647%);fill-opacity:1;" d="M 55.996094 16.675781 L 27.992188 8.339844 L 0 16.675781 L 0 8.339844 L 27.996094 0 L 56 8.339844 L 56 16.675781 Z M 55.996094 16.675781 "/>
<path style=" stroke:none;fill-rule:nonzero;fill:rgb(0%,0%,0%);fill-opacity:1;" d="M 0 23.679688 L 14.667969 23.679688 L 14.667969 42.058594 C 14.667969 46.804688 21.542969 49.121094 27.996094 49.121094 C 34.511719 49.121094 41.335938 46.746094 41.335938 41.992188 L 41.335938 23.679688 L 56 23.679688 L 56 42.496094 C 56 46.871094 53.335938 50.246094 48 52.558594 C 42.664062 54.871094 36 56 27.875 56 C 19.757812 56 13.089844 54.875 7.878906 52.558594 C 2.664062 50.246094 0 46.996094 0 42.683594 Z M 0 23.679688 "/>
</g>
</svg>
