<?xml version="1.0" encoding="UTF-8"?>
<svg xmlns="http://www.w3.org/2000/svg" xmlns:xlink="http://www.w3.org/1999/xlink" width="29px" height="56px" viewBox="0 0 29 56" version="1.1">
<g id="surface1">
<path style=" stroke:none;fill-rule:nonzero;fill:rgb(64.313725%,20.784314%,94.117647%);fill-opacity:1;" d="M 28.996094 16.675781 L 14.496094 8.339844 L 0 16.675781 L 0 8.339844 L 14.5 0 L 29 8.339844 L 29 16.675781 Z M 28.996094 16.675781 "/>
<path style=" stroke:none;fill-rule:nonzero;fill:rgb(0%,0%,0%);fill-opacity:1;" d="M 0 23.679688 L 7.59375 23.679688 L 7.59375 42.058594 C 7.59375 46.804688 11.15625 49.121094 14.5 49.121094 C 17.871094 49.121094 21.40625 46.746094 21.40625 41.992188 L 21.40625 23.679688 L 29 23.679688 L 29 42.496094 C 29 46.871094 27.621094 50.246094 24.859375 52.558594 C 22.09375 54.871094 18.644531 56 14.433594 56 C 10.230469 56 6.777344 54.875 4.082031 52.558594 C 1.378906 50.246094 0 46.996094 0 42.683594 Z M 0 23.679688 "/>
</g>
</svg>
