<?xml version="1.0" encoding="UTF-8"?>
<svg xmlns="http://www.w3.org/2000/svg" xmlns:xlink="http://www.w3.org/1999/xlink" width="56px" height="56px" viewBox="0 0 42 42" version="1.1">
<g id="surface1">
<path style=" stroke:none;fill-rule:nonzero;fill:rgb(64.313725%,20.784314%,94.117647%);fill-opacity:1;" d="M 41.996094 12.507812 L 20.996094 6.253906 L 0 12.507812 L 0 6.253906 L 20.996094 0 L 42 6.253906 L 42 12.507812 Z M 41.996094 12.507812 "/>
<path style=" stroke:none;fill-rule:nonzero;fill:rgb(0%,0%,0%);fill-opacity:1;" d="M 0 17.761719 L 11 17.761719 L 11 31.542969 C 11 35.105469 16.15625 36.839844 20.996094 36.839844 C 25.882812 36.839844 31.003906 35.058594 31.003906 31.496094 L 31.003906 17.761719 L 42 17.761719 L 42 31.871094 C 42 35.152344 40.003906 37.683594 36 39.417969 C 31.996094 41.152344 27 42 20.90625 42 C 14.816406 42 9.816406 41.15625 5.910156 39.417969 C 1.996094 37.683594 0 35.246094 0 32.011719 Z M 0 17.761719 "/>
</g>
</svg>
